<svg width="1280" height="720" viewBox="0 0 1280 720" fill="none" xmlns="http://www.w3.org/2000/svg">
  <defs>
    <linearGradient id="bg" x1="640" y1="0" x2="640" y2="720" gradientUnits="userSpaceOnUse">
      <stop offset="0" stop-color="#10172A"/>
      <stop offset="0.45" stop-color="#182238"/>
      <stop offset="1" stop-color="#0E1422"/>
    </linearGradient>
    <linearGradient id="street" x1="640" y1="250" x2="640" y2="720" gradientUnits="userSpaceOnUse">
      <stop offset="0" stop-color="#1A2235"/>
      <stop offset="0.55" stop-color="#1E2A3F"/>
      <stop offset="1" stop-color="#0B1220"/>
    </linearGradient>
    <linearGradient id="stallGlow" x1="0" y1="0" x2="1" y2="1">
      <stop offset="0" stop-color="#FF9D4D"/>
      <stop offset="1" stop-color="#F97316"/>
    </linearGradient>
    <radialGradient id="lightBloom" cx="0" cy="0" r="1" gradientUnits="userSpaceOnUse" gradientTransform="translate(640 130) rotate(90) scale(220 500)">
      <stop offset="0" stop-color="#FEF3C7" stop-opacity="0.6"/>
      <stop offset="1" stop-color="#FEF3C7" stop-opacity="0"/>
    </radialGradient>
    <filter id="blurLarge" x="-200" y="-200" width="1680" height="1120" filterUnits="userSpaceOnUse">
      <feGaussianBlur stdDeviation="32"/>
    </filter>
    <filter id="blurSmall" x="-40" y="-40" width="1360" height="800" filterUnits="userSpaceOnUse">
      <feGaussianBlur stdDeviation="10"/>
    </filter>
  </defs>

  <rect width="1280" height="720" fill="url(#bg)"/>
  <rect width="1280" height="720" fill="url(#lightBloom)"/>

  <g opacity="0.9">
    <polygon points="330,255 540,255 742,720 170,720" fill="url(#street)"/>
    <polygon points="746,255 965,255 1110,720 780,720" fill="#202B3E"/>
    <polygon points="520,255 760,255 910,720 390,720" fill="#26344D" opacity="0.65"/>
  </g>

  <g filter="url(#blurLarge)" opacity="0.55">
    <ellipse cx="585" cy="595" rx="250" ry="58" fill="#6EE7F9" opacity="0.18"/>
    <ellipse cx="760" cy="555" rx="220" ry="52" fill="#FB7185" opacity="0.14"/>
    <ellipse cx="905" cy="470" rx="140" ry="44" fill="#F59E0B" opacity="0.18"/>
  </g>

  <g opacity="0.96">
    <rect x="36" y="176" width="278" height="212" rx="12" fill="#101827"/>
    <rect x="314" y="186" width="74" height="202" rx="8" fill="#182438"/>
    <rect x="54" y="204" width="148" height="62" rx="8" fill="#7C2D12"/>
    <rect x="58" y="208" width="140" height="54" rx="6" fill="#EF4444"/>
    <text x="78" y="243" fill="#FDE68A" font-size="26" font-family="Microsoft YaHei, PingFang SC, sans-serif" font-weight="700">夜市美食</text>
    <rect x="208" y="214" width="68" height="90" rx="6" fill="#0F172A"/>
    <rect x="216" y="224" width="52" height="18" rx="4" fill="#E5E7EB"/>
    <rect x="216" y="248" width="52" height="48" rx="4" fill="#D946EF"/>
    <text x="224" y="282" fill="white" font-size="26" font-family="Arial" font-weight="700">KK</text>
  </g>

  <g opacity="0.96">
    <polygon points="935,192 1260,252 1260,484 990,430" fill="#192130"/>
    <polygon points="914,212 1230,266 1230,470 970,420" fill="#263247"/>
    <polygon points="910,214 1184,262 1148,390 946,350" fill="#4B5563" opacity="0.45"/>
    <polygon points="1000,268 1235,306 1216,390 992,350" fill="url(#stallGlow)" opacity="0.25"/>
  </g>

  <g opacity="0.9">
    <rect x="128" y="328" width="196" height="124" rx="10" fill="#19263A"/>
    <rect x="956" y="350" width="208" height="140" rx="10" fill="#1B2538"/>
    <rect x="98" y="330" width="250" height="26" rx="6" fill="#F59E0B" opacity="0.78"/>
    <rect x="930" y="352" width="250" height="28" rx="6" fill="#FCD34D" opacity="0.72"/>
  </g>

  <g filter="url(#blurSmall)" opacity="0.45">
    <circle cx="80" cy="290" r="34" fill="#F97316"/>
    <circle cx="1215" cy="344" r="42" fill="#F59E0B"/>
    <circle cx="1060" cy="286" r="28" fill="#FB7185"/>
  </g>

  <g stroke="#F97316" stroke-width="4" opacity="0.85">
    <path d="M280 122C380 146 500 168 625 176C770 184 926 166 1088 114"/>
    <path d="M250 148C386 176 520 190 676 194C820 198 950 184 1094 146"/>
    <path d="M312 176C432 198 556 208 684 210C794 212 898 204 1006 182"/>
  </g>

  <g>
    <g fill="#EF4444">
      <circle cx="308" cy="128" r="11"/><circle cx="356" cy="138" r="11"/><circle cx="404" cy="148" r="11"/>
      <circle cx="452" cy="156" r="11"/><circle cx="500" cy="163" r="11"/><circle cx="548" cy="168" r="11"/>
      <circle cx="596" cy="173" r="11"/><circle cx="644" cy="176" r="11"/><circle cx="692" cy="178" r="11"/>
      <circle cx="742" cy="177" r="11"/><circle cx="792" cy="174" r="11"/><circle cx="842" cy="168" r="11"/>
      <circle cx="892" cy="160" r="11"/><circle cx="942" cy="150" r="11"/><circle cx="992" cy="140" r="11"/>
      <circle cx="1042" cy="128" r="11"/>
    </g>
    <g fill="#F87171" opacity="0.55" filter="url(#blurSmall)">
      <circle cx="308" cy="128" r="16"/><circle cx="356" cy="138" r="16"/><circle cx="404" cy="148" r="16"/>
      <circle cx="452" cy="156" r="16"/><circle cx="500" cy="163" r="16"/><circle cx="548" cy="168" r="16"/>
      <circle cx="596" cy="173" r="16"/><circle cx="644" cy="176" r="16"/><circle cx="692" cy="178" r="16"/>
      <circle cx="742" cy="177" r="16"/><circle cx="792" cy="174" r="16"/><circle cx="842" cy="168" r="16"/>
      <circle cx="892" cy="160" r="16"/><circle cx="942" cy="150" r="16"/><circle cx="992" cy="140" r="16"/>
      <circle cx="1042" cy="128" r="16"/>
    </g>
  </g>

  <g opacity="0.85">
    <rect x="510" y="248" width="22" height="114" rx="8" fill="#111827"/>
    <rect x="604" y="264" width="18" height="116" rx="8" fill="#111827"/>
    <rect x="728" y="274" width="18" height="124" rx="8" fill="#111827"/>
    <rect x="868" y="248" width="16" height="112" rx="8" fill="#111827"/>
  </g>

  <g opacity="0.92">
    <ellipse cx="206" cy="520" rx="44" ry="80" fill="#1F2937"/>
    <circle cx="206" cy="412" r="30" fill="#F59E0B"/>
    <rect x="178" y="448" width="56" height="110" rx="22" fill="#111827"/>

    <ellipse cx="370" cy="486" rx="32" ry="58" fill="#27364E"/>
    <circle cx="370" cy="404" r="24" fill="#D6A373"/>
    <rect x="346" y="430" width="48" height="88" rx="20" fill="#334155"/>

    <ellipse cx="540" cy="470" rx="24" ry="46" fill="#0F172A"/>
    <circle cx="540" cy="408" r="20" fill="#E5C7A5"/>
    <rect x="522" y="426" width="36" height="72" rx="16" fill="#475569"/>

    <ellipse cx="676" cy="452" rx="18" ry="34" fill="#0F172A"/>
    <circle cx="676" cy="402" r="16" fill="#E8C9A0"/>
    <rect x="662" y="416" width="28" height="54" rx="14" fill="#94A3B8"/>

    <ellipse cx="980" cy="502" rx="28" ry="54" fill="#1F2937"/>
    <circle cx="980" cy="426" r="20" fill="#D6A373"/>
    <rect x="960" y="444" width="40" height="78" rx="18" fill="#111827"/>
  </g>

  <g opacity="0.5">
    <path d="M456 566C518 552 596 548 684 552C790 556 880 574 988 620" stroke="#E2E8F0" stroke-width="4" stroke-linecap="round"/>
    <path d="M418 614C504 592 614 588 750 600C866 610 952 632 1042 672" stroke="#94A3B8" stroke-width="3" stroke-linecap="round" opacity="0.5"/>
  </g>

  <g opacity="0.55" filter="url(#blurSmall)">
    <ellipse cx="214" cy="612" rx="68" ry="20" fill="#F59E0B"/>
    <ellipse cx="970" cy="612" rx="64" ry="20" fill="#F97316"/>
    <ellipse cx="620" cy="630" rx="140" ry="24" fill="#60A5FA"/>
  </g>
</svg>
